<svg xmlns="http://www.w3.org/2000/svg" width="1000" height="212" fill="none" viewBox="0 0 1000 212">
  <path fill="#824646" d="M197 1H90l107 130V1Z"/>
  <path fill="#5C1515" d="M102 210.465 0 82v128.465h102Z"/>
  <path fill="red" d="M198 150.5 74 .5C20.14 3.134 4.78 17.552 0 63l124.5 147.5c50.34-2.54 69.196-13 73.5-60Z"/>
  <path fill="#9FF182" d="M317 211.496V1.565c-36.5-2.511-101-1.02-101 101.45 0 65.791 30 114.508 101 108.481Z"/>
  <path fill="#486C37" d="M329 211.496V1.565c36.5-2.511 101-1.02 101 101.45 0 65.791-30 114.508-101 108.481Z"/>
  <path fill="#37267A" d="M450 1h89v209h-89z"/>
  <path fill="#2824EC" d="M646 211h-92.5c-1.861-57.32 20.216-71.327 92.5-70.5V211Z"/>
  <path fill="#00FFC2" d="M678 1h89v209h-89z"/>
  <path fill="#FFA800" d="M899 211.496V1.565c36.5-2.511 101-1.02 101 101.45 0 65.791-30 114.508-101 108.481Z"/>
  <path fill="#C67E12" d="M796 1h89v209h-89z"/>
</svg>
