<svg id="visual" viewBox="0 0 900 600" width="900" height="600" xmlns="http://www.w3.org/2000/svg" xmlns:xlink="http://www.w3.org/1999/xlink" version="1.1"><rect x="0" y="0" width="900" height="600" fill="#ffffff"></rect><path d="M0 469L21.5 462.8C43 456.7 86 444.3 128.8 442.3C171.7 440.3 214.3 448.7 257.2 443C300 437.3 343 417.7 385.8 419.7C428.7 421.7 471.3 445.3 514.2 458.7C557 472 600 475 642.8 478.2C685.7 481.3 728.3 484.7 771.2 472.5C814 460.3 857 432.7 878.5 418.8L900 405L900 601L878.5 601C857 601 814 601 771.2 601C728.3 601 685.7 601 642.8 601C600 601 557 601 514.2 601C471.3 601 428.7 601 385.8 601C343 601 300 601 257.2 601C214.3 601 171.7 601 128.8 601C86 601 43 601 21.5 601L0 601Z" fill="#fa7268"></path><path d="M0 492L21.5 492.7C43 493.3 86 494.7 128.8 495.3C171.7 496 214.3 496 257.2 497C300 498 343 500 385.8 504.3C428.7 508.7 471.3 515.3 514.2 504C557 492.7 600 463.3 642.8 451.7C685.7 440 728.3 446 771.2 457.8C814 469.7 857 487.3 878.5 496.2L900 505L900 601L878.5 601C857 601 814 601 771.2 601C728.3 601 685.7 601 642.8 601C600 601 557 601 514.2 601C471.3 601 428.7 601 385.8 601C343 601 300 601 257.2 601C214.3 601 171.7 601 128.8 601C86 601 43 601 21.5 601L0 601Z" fill="#eb5967"></path><path d="M0 546L21.5 547.3C43 548.7 86 551.3 128.8 553.2C171.7 555 214.3 556 257.2 551.5C300 547 343 537 385.8 531.3C428.7 525.7 471.3 524.3 514.2 525C557 525.7 600 528.3 642.8 529C685.7 529.7 728.3 528.3 771.2 519C814 509.7 857 492.3 878.5 483.7L900 475L900 601L878.5 601C857 601 814 601 771.2 601C728.3 601 685.7 601 642.8 601C600 601 557 601 514.2 601C471.3 601 428.7 601 385.8 601C343 601 300 601 257.2 601C214.3 601 171.7 601 128.8 601C86 601 43 601 21.5 601L0 601Z" fill="#da3f67"></path><path d="M0 550L21.5 547.7C43 545.3 86 540.7 128.8 545C171.7 549.3 214.3 562.7 257.2 563.3C300 564 343 552 385.8 550.7C428.7 549.3 471.3 558.7 514.2 562.7C557 566.7 600 565.3 642.8 561.5C685.7 557.7 728.3 551.3 771.2 554.7C814 558 857 571 878.5 577.5L900 584L900 601L878.5 601C857 601 814 601 771.2 601C728.3 601 685.7 601 642.8 601C600 601 557 601 514.2 601C471.3 601 428.7 601 385.8 601C343 601 300 601 257.2 601C214.3 601 171.7 601 128.8 601C86 601 43 601 21.5 601L0 601Z" fill="#c62368"></path></svg>