<svg id="visual" viewBox="0 0 900 600" width="900" height="600" xmlns="http://www.w3.org/2000/svg" xmlns:xlink="http://www.w3.org/1999/xlink" version="1.1"><rect x="0" y="0" width="900" height="600" fill="#ffffff"></rect><path d="M0 424L21.5 419.5C43 415 86 406 128.8 416.3C171.7 426.7 214.3 456.3 257.2 469.2C300 482 343 478 385.8 480C428.7 482 471.3 490 514.2 477.2C557 464.3 600 430.7 642.8 427.5C685.7 424.3 728.3 451.7 771.2 457.8C814 464 857 449 878.5 441.5L900 434L900 601L878.5 601C857 601 814 601 771.2 601C728.3 601 685.7 601 642.8 601C600 601 557 601 514.2 601C471.3 601 428.7 601 385.8 601C343 601 300 601 257.2 601C214.3 601 171.7 601 128.8 601C86 601 43 601 21.5 601L0 601Z" fill="#fa7268"></path><path d="M0 513L21.5 509.5C43 506 86 499 128.8 492.2C171.7 485.3 214.3 478.7 257.2 472.8C300 467 343 462 385.8 470.8C428.7 479.7 471.3 502.3 514.2 512.2C557 522 600 519 642.8 516C685.7 513 728.3 510 771.2 508.2C814 506.3 857 505.7 878.5 505.3L900 505L900 601L878.5 601C857 601 814 601 771.2 601C728.3 601 685.7 601 642.8 601C600 601 557 601 514.2 601C471.3 601 428.7 601 385.8 601C343 601 300 601 257.2 601C214.3 601 171.7 601 128.8 601C86 601 43 601 21.5 601L0 601Z" fill="#eb5967"></path><path d="M0 508L21.5 514.8C43 521.7 86 535.3 128.8 536.3C171.7 537.3 214.3 525.7 257.2 516.7C300 507.7 343 501.3 385.8 507.8C428.7 514.3 471.3 533.7 514.2 542.3C557 551 600 549 642.8 537.8C685.7 526.7 728.3 506.3 771.2 499.8C814 493.3 857 500.7 878.5 504.3L900 508L900 601L878.5 601C857 601 814 601 771.2 601C728.3 601 685.7 601 642.8 601C600 601 557 601 514.2 601C471.3 601 428.7 601 385.8 601C343 601 300 601 257.2 601C214.3 601 171.7 601 128.8 601C86 601 43 601 21.5 601L0 601Z" fill="#da3f67"></path><path d="M0 555L21.5 558.5C43 562 86 569 128.8 571.5C171.7 574 214.3 572 257.2 567.2C300 562.3 343 554.7 385.8 549.3C428.7 544 471.3 541 514.2 542.5C557 544 600 550 642.8 553.5C685.7 557 728.3 558 771.2 553.3C814 548.7 857 538.3 878.5 533.2L900 528L900 601L878.5 601C857 601 814 601 771.2 601C728.3 601 685.7 601 642.8 601C600 601 557 601 514.2 601C471.3 601 428.7 601 385.8 601C343 601 300 601 257.2 601C214.3 601 171.7 601 128.8 601C86 601 43 601 21.5 601L0 601Z" fill="#c62368"></path></svg>