<svg id="visual" viewBox="0 0 900 600" width="900" height="600" xmlns="http://www.w3.org/2000/svg" xmlns:xlink="http://www.w3.org/1999/xlink" version="1.1"><rect x="0" y="0" width="900" height="600" fill="#ffffff"></rect><path d="M0 410L21.5 412.2C43 414.3 86 418.7 128.8 427C171.7 435.3 214.3 447.7 257.2 456.8C300 466 343 472 385.8 463.2C428.7 454.3 471.3 430.7 514.2 432.2C557 433.7 600 460.3 642.8 465.5C685.7 470.7 728.3 454.3 771.2 439.2C814 424 857 410 878.5 403L900 396L900 601L878.5 601C857 601 814 601 771.2 601C728.3 601 685.7 601 642.8 601C600 601 557 601 514.2 601C471.3 601 428.7 601 385.8 601C343 601 300 601 257.2 601C214.3 601 171.7 601 128.8 601C86 601 43 601 21.5 601L0 601Z" fill="#fa7268"></path><path d="M0 442L21.5 447.3C43 452.7 86 463.3 128.8 474.3C171.7 485.3 214.3 496.7 257.2 493.5C300 490.3 343 472.7 385.8 464.8C428.7 457 471.3 459 514.2 471C557 483 600 505 642.8 512.5C685.7 520 728.3 513 771.2 500.3C814 487.7 857 469.3 878.5 460.2L900 451L900 601L878.5 601C857 601 814 601 771.2 601C728.3 601 685.7 601 642.8 601C600 601 557 601 514.2 601C471.3 601 428.7 601 385.8 601C343 601 300 601 257.2 601C214.3 601 171.7 601 128.8 601C86 601 43 601 21.5 601L0 601Z" fill="#eb5967"></path><path d="M0 525L21.5 518.3C43 511.7 86 498.3 128.8 503C171.7 507.7 214.3 530.3 257.2 540.5C300 550.7 343 548.3 385.8 547.7C428.7 547 471.3 548 514.2 543.3C557 538.7 600 528.3 642.8 525.7C685.7 523 728.3 528 771.2 527C814 526 857 519 878.5 515.5L900 512L900 601L878.5 601C857 601 814 601 771.2 601C728.3 601 685.7 601 642.8 601C600 601 557 601 514.2 601C471.3 601 428.7 601 385.8 601C343 601 300 601 257.2 601C214.3 601 171.7 601 128.8 601C86 601 43 601 21.5 601L0 601Z" fill="#da3f67"></path><path d="M0 538L21.5 538C43 538 86 538 128.8 538.5C171.7 539 214.3 540 257.2 541.8C300 543.7 343 546.3 385.8 551C428.7 555.7 471.3 562.3 514.2 566.2C557 570 600 571 642.8 566.5C685.7 562 728.3 552 771.2 543.3C814 534.7 857 527.3 878.5 523.7L900 520L900 601L878.5 601C857 601 814 601 771.2 601C728.3 601 685.7 601 642.8 601C600 601 557 601 514.2 601C471.3 601 428.7 601 385.8 601C343 601 300 601 257.2 601C214.3 601 171.7 601 128.8 601C86 601 43 601 21.5 601L0 601Z" fill="#c62368"></path></svg>