<svg id="visual" viewBox="0 0 900 600" width="900" height="600" xmlns="http://www.w3.org/2000/svg" xmlns:xlink="http://www.w3.org/1999/xlink" version="1.1"><rect x="0" y="0" width="900" height="600" fill="#ffffff"></rect><path d="M0 423L21.5 427.2C43 431.3 86 439.7 128.8 451.7C171.7 463.7 214.3 479.3 257.2 483.5C300 487.7 343 480.3 385.8 467.8C428.7 455.3 471.3 437.7 514.2 426.7C557 415.7 600 411.3 642.8 418.3C685.7 425.3 728.3 443.7 771.2 456C814 468.3 857 474.7 878.5 477.8L900 481L900 601L878.5 601C857 601 814 601 771.2 601C728.3 601 685.7 601 642.8 601C600 601 557 601 514.2 601C471.3 601 428.7 601 385.8 601C343 601 300 601 257.2 601C214.3 601 171.7 601 128.8 601C86 601 43 601 21.5 601L0 601Z" fill="#fa7268"></path><path d="M0 503L21.5 504.7C43 506.3 86 509.7 128.8 500.3C171.7 491 214.3 469 257.2 469C300 469 343 491 385.8 496.2C428.7 501.3 471.3 489.7 514.2 487C557 484.3 600 490.7 642.8 490.8C685.7 491 728.3 485 771.2 474.2C814 463.3 857 447.7 878.5 439.8L900 432L900 601L878.5 601C857 601 814 601 771.2 601C728.3 601 685.7 601 642.8 601C600 601 557 601 514.2 601C471.3 601 428.7 601 385.8 601C343 601 300 601 257.2 601C214.3 601 171.7 601 128.8 601C86 601 43 601 21.5 601L0 601Z" fill="#eb5967"></path><path d="M0 522L21.5 527.5C43 533 86 544 128.8 549C171.7 554 214.3 553 257.2 539.5C300 526 343 500 385.8 489.5C428.7 479 471.3 484 514.2 487.8C557 491.7 600 494.3 642.8 503.2C685.7 512 728.3 527 771.2 526C814 525 857 508 878.5 499.5L900 491L900 601L878.5 601C857 601 814 601 771.2 601C728.3 601 685.7 601 642.8 601C600 601 557 601 514.2 601C471.3 601 428.7 601 385.8 601C343 601 300 601 257.2 601C214.3 601 171.7 601 128.8 601C86 601 43 601 21.5 601L0 601Z" fill="#da3f67"></path><path d="M0 560L21.5 557.8C43 555.7 86 551.3 128.8 546C171.7 540.7 214.3 534.3 257.2 533.3C300 532.3 343 536.7 385.8 535.8C428.7 535 471.3 529 514.2 536C557 543 600 563 642.8 569.5C685.7 576 728.3 569 771.2 560C814 551 857 540 878.5 534.5L900 529L900 601L878.5 601C857 601 814 601 771.2 601C728.3 601 685.7 601 642.8 601C600 601 557 601 514.2 601C471.3 601 428.7 601 385.8 601C343 601 300 601 257.2 601C214.3 601 171.7 601 128.8 601C86 601 43 601 21.5 601L0 601Z" fill="#c62368"></path></svg>