<svg id="visual" viewBox="0 0 900 600" width="900" height="600" xmlns="http://www.w3.org/2000/svg" xmlns:xlink="http://www.w3.org/1999/xlink" version="1.1"><rect x="0" y="0" width="900" height="600" fill="#ffffff"></rect><path d="M0 485L21.5 475.8C43 466.7 86 448.3 128.8 444.3C171.7 440.3 214.3 450.7 257.2 450.7C300 450.7 343 440.3 385.8 438C428.7 435.7 471.3 441.3 514.2 451.3C557 461.3 600 475.7 642.8 470.3C685.7 465 728.3 440 771.2 441.3C814 442.7 857 470.3 878.5 484.2L900 498L900 601L878.5 601C857 601 814 601 771.2 601C728.3 601 685.7 601 642.8 601C600 601 557 601 514.2 601C471.3 601 428.7 601 385.8 601C343 601 300 601 257.2 601C214.3 601 171.7 601 128.8 601C86 601 43 601 21.5 601L0 601Z" fill="#fa7268"></path><path d="M0 437L21.5 444.7C43 452.3 86 467.7 128.8 471.5C171.7 475.3 214.3 467.7 257.2 475C300 482.3 343 504.7 385.8 513.3C428.7 522 471.3 517 514.2 504C557 491 600 470 642.8 460C685.7 450 728.3 451 771.2 449.7C814 448.3 857 444.7 878.5 442.8L900 441L900 601L878.5 601C857 601 814 601 771.2 601C728.3 601 685.7 601 642.8 601C600 601 557 601 514.2 601C471.3 601 428.7 601 385.8 601C343 601 300 601 257.2 601C214.3 601 171.7 601 128.8 601C86 601 43 601 21.5 601L0 601Z" fill="#eb5967"></path><path d="M0 486L21.5 496.7C43 507.3 86 528.7 128.8 531.3C171.7 534 214.3 518 257.2 513.5C300 509 343 516 385.8 524.7C428.7 533.3 471.3 543.7 514.2 548C557 552.3 600 550.7 642.8 551C685.7 551.3 728.3 553.7 771.2 546.2C814 538.7 857 521.3 878.5 512.7L900 504L900 601L878.5 601C857 601 814 601 771.2 601C728.3 601 685.7 601 642.8 601C600 601 557 601 514.2 601C471.3 601 428.7 601 385.8 601C343 601 300 601 257.2 601C214.3 601 171.7 601 128.8 601C86 601 43 601 21.5 601L0 601Z" fill="#da3f67"></path><path d="M0 545L21.5 541.3C43 537.7 86 530.3 128.8 531.5C171.7 532.7 214.3 542.3 257.2 542C300 541.7 343 531.3 385.8 527.3C428.7 523.3 471.3 525.7 514.2 532.3C557 539 600 550 642.8 555.2C685.7 560.3 728.3 559.7 771.2 560C814 560.3 857 561.7 878.5 562.3L900 563L900 601L878.5 601C857 601 814 601 771.2 601C728.3 601 685.7 601 642.8 601C600 601 557 601 514.2 601C471.3 601 428.7 601 385.8 601C343 601 300 601 257.2 601C214.3 601 171.7 601 128.8 601C86 601 43 601 21.5 601L0 601Z" fill="#c62368"></path></svg>